<?xml version="1.0" encoding="utf-8"?>
<!-- Generator: Adobe Illustrator 19.0.0, SVG Export Plug-In . SVG Version: 6.00 Build 0)  -->
<svg version="1.1" id="Layer_1" xmlns="http://www.w3.org/2000/svg" xmlns:xlink="http://www.w3.org/1999/xlink" x="0px" y="0px"
	 viewBox="44 65 600 382" style="enable-background:new 44 65 600 382;" xml:space="preserve">
<style type="text/css">
	.st0{fill:#699F63;}
	.st1{fill:#333333;}
	.st2{fill:url(#XMLID_2_);}
	.st3{clip-path:url(#SVGID_2_);}
	.st4{fill:none;}
	.st5{fill:url(#SVGID_3_);}
	.st6{clip-path:url(#SVGID_5_);}
	.st7{fill:url(#SVGID_6_);}
	.st8{fill:url(#SVGID_7_);}
	.st9{fill:url(#SVGID_8_);}
	.st10{fill:url(#SVGID_9_);}
	.st11{fill:url(#SVGID_10_);}
</style>
<g>
	<path class="st0" d="M340.2,435.7c-2,0-3.9-0.5-5.6-1.5l-17.7-10.5c-2.7-1.5-1.3-2-0.5-2.3c3.6-1.2,4.3-1.5,8-3.6
		c0.4-0.3,0.9-0.1,1.3,0.1l13.6,8.1c0.5,0.3,1.2,0.3,1.6,0l53.1-30.7c0.5-0.3,0.8-0.8,0.8-1.5v-61.4c0-0.7-0.3-1.2-0.8-1.5
		l-53.1-30.6c-0.5-0.3-1.2-0.3-1.6,0l-53.1,30.6c-0.5,0.3-0.8,0.9-0.8,1.5v61.4c0,0.5,0.3,1.2,0.8,1.5l14.5,8.4
		c7.9,4,12.8-0.7,12.8-5.3v-60.6c0-0.8,0.7-1.6,1.6-1.6h6.8c0.8,0,1.6,0.7,1.6,1.6v60.6c0,10.5-5.7,16.6-15.7,16.6
		c-3.1,0-5.5,0-12.2-3.3l-14-8c-3.5-2-5.6-5.7-5.6-9.7v-61.4c0-4,2.1-7.7,5.6-9.7l53.1-30.7c3.3-1.9,7.9-1.9,11.2,0l53.1,30.7
		c3.5,2,5.6,5.7,5.6,9.7v61.4c0,4-2.1,7.7-5.6,9.7l-53.1,30.7C344.1,435.3,342.1,435.7,340.2,435.7z"/>
	<path class="st0" d="M356.6,393.5c-23.3,0-28.1-10.6-28.1-19.7c0-0.8,0.7-1.6,1.6-1.6h6.9c0.8,0,1.5,0.5,1.5,1.3
		c1.1,7.1,4.1,10.5,18.2,10.5c11.2,0,16-2.5,16-8.5c0-3.5-1.3-6-18.8-7.7c-14.5-1.5-23.6-4.7-23.6-16.2c0-10.8,9.1-17.2,24.2-17.2
		c17,0,25.4,5.9,26.5,18.6c0,0.4-0.1,0.8-0.4,1.2c-0.3,0.3-0.7,0.5-1.1,0.5h-6.9c-0.7,0-1.3-0.5-1.5-1.2c-1.6-7.3-5.7-9.7-16.6-9.7
		c-12.2,0-13.7,4.3-13.7,7.5c0,3.9,1.7,5.1,18.2,7.2c16.4,2.1,24.1,5.2,24.1,16.6C383.1,386.9,373.5,393.5,356.6,393.5z"/>
</g>
<g>
	<path class="st0" d="M433.2,329.1c0,5.6-4.7,10.2-10.2,10.2c-5.6,0-10.2-4.5-10.2-10.2c0-5.9,4.8-10.2,10.2-10.2
		C428.6,318.9,433.2,323.4,433.2,329.1z M414.3,329.1c0,4.8,3.9,8.7,8.5,8.7c4.8,0,8.7-4,8.7-8.7c0-4.8-3.9-8.5-8.7-8.5
		C418.3,320.6,414.3,324.3,414.3,329.1z M419.1,323.4h4c1.3,0,4,0,4,3.1c0,2.1-1.3,2.5-2.1,2.8c1.6,0.1,1.7,1.2,1.9,2.7
		c0.1,0.9,0.3,2.5,0.5,3.1H425c0-0.5-0.4-3.5-0.4-3.6c-0.1-0.7-0.4-0.9-1.2-0.9h-2v4.7h-2.3V323.4z M421.3,328.5h1.7
		c1.5,0,1.7-1.1,1.7-1.6c0-1.6-1.1-1.6-1.7-1.6h-1.9v3.2H421.3z"/>
</g>
<path class="st1" d="M175.4,195.8c0-2.4-1.3-4.7-3.5-5.9l-56.4-32.5c-0.9-0.5-2-0.8-3.1-0.9c-0.1,0-0.5,0-0.5,0
	c-1.1,0-2.1,0.4-3.1,0.9l-56.4,32.5c-2.1,1.2-3.5,3.5-3.5,5.9l0.1,87.3c0,1.2,0.7,2.4,1.7,2.9c1.1,0.7,2.4,0.7,3.3,0l33.5-19.2
	c2.1-1.2,3.5-3.5,3.5-5.9v-40.9c0-2.4,1.3-4.7,3.5-5.9l14.2-8.3c1.1-0.7,2.3-0.9,3.5-0.9s2.4,0.3,3.3,0.9l14.2,8.3
	c2.1,1.2,3.5,3.5,3.5,5.9V261c0,2.4,1.3,4.7,3.5,5.9l33.5,19.2c1.1,0.7,2.4,0.7,3.5,0c1.1-0.5,1.7-1.7,1.7-2.9L175.4,195.8z"/>
<path class="st1" d="M446.7,75.6c-1.1-0.5-2.4-0.5-3.3,0c-1.1,0.7-1.7,1.7-1.7,2.9V165c0,0.8-0.4,1.6-1.2,2.1
	c-0.8,0.4-1.6,0.4-2.4,0l-14.1-8.1c-2.1-1.2-4.7-1.2-6.8,0l-56.4,32.6c-2.1,1.2-3.5,3.5-3.5,5.9v65.1c0,2.4,1.3,4.7,3.5,5.9
	l56.4,32.6c2.1,1.2,4.7,1.2,6.8,0l56.4-32.6c2.1-1.2,3.5-3.5,3.5-5.9V100.3c0-2.5-1.3-4.8-3.5-6L446.7,75.6z M441.5,241.1
	c0,0.7-0.3,1.2-0.8,1.5l-19.3,11.2c-0.5,0.3-1.2,0.3-1.7,0l-19.3-11.2c-0.5-0.3-0.8-0.9-0.8-1.5v-22.4c0-0.7,0.3-1.2,0.8-1.5
	l19.3-11.2c0.5-0.3,1.2-0.3,1.7,0l19.3,11.2c0.5,0.3,0.8,0.9,0.8,1.5V241.1z"/>
<g>
	<path class="st1" d="M634.5,218.3c2.1-1.2,3.3-3.5,3.3-5.9v-15.8c0-2.4-1.3-4.7-3.3-5.9l-56-32.5c-2.1-1.2-4.7-1.2-6.8,0
		l-56.4,32.6c-2.1,1.2-3.5,3.5-3.5,5.9v65.1c0,2.4,1.3,4.7,3.5,5.9l56,31.9c2.1,1.2,4.7,1.2,6.7,0l33.9-18.9
		c1.1-0.5,1.7-1.7,1.7-2.9s-0.7-2.4-1.7-2.9l-56.7-32.6c-1.1-0.7-1.7-1.7-1.7-2.9v-20.4c0-1.2,0.7-2.4,1.7-2.9l17.7-10.1
		c1.1-0.7,2.4-0.7,3.5,0L594,216c1.1,0.7,1.7,1.7,1.7,2.9v16c0,1.2,0.7,2.4,1.7,2.9c1.1,0.7,2.4,0.7,3.5,0L634.5,218.3z"/>
	<path class="st0" d="M574.2,215.2c0.4-0.3,0.9-0.3,1.3,0l10.8,6.3c0.4,0.3,0.7,0.7,0.7,1.2v12.5c0,0.5-0.3,0.9-0.7,1.2l-10.8,6.3
		c-0.4,0.3-0.9,0.3-1.3,0l-10.8-6.3c-0.4-0.3-0.7-0.7-0.7-1.2v-12.5c0-0.5,0.3-0.9,0.7-1.2L574.2,215.2z"/>
</g>
<g>
	<g>
		
			<linearGradient id="XMLID_2_" gradientUnits="userSpaceOnUse" x1="289.2053" y1="329.4125" x2="238.5439" y2="226.0633" gradientTransform="matrix(1 0 0 -1 0 512)">
			<stop  offset="0" style="stop-color:#41873F"/>
			<stop  offset="0.3288" style="stop-color:#418B3D"/>
			<stop  offset="0.6352" style="stop-color:#419637"/>
			<stop  offset="0.9319" style="stop-color:#3FA92D"/>
			<stop  offset="1" style="stop-color:#3FAE2A"/>
		</linearGradient>
		<path id="XMLID_143_" class="st2" d="M269.8,158.5c-2.1-1.2-4.7-1.2-6.8,0l-56,32.3c-2.1,1.2-3.3,3.5-3.3,5.9v64.8
			c0,2.4,1.3,4.7,3.3,5.9l56,32.3c2.1,1.2,4.7,1.2,6.8,0l56-32.3c2.1-1.2,3.3-3.5,3.3-5.9v-64.8c0-2.4-1.3-4.7-3.3-5.9L269.8,158.5z
			"/>
	</g>
	<g>
		<defs>
			<path id="SVGID_1_" d="M269.8,158.5c-2.1-1.2-4.7-1.2-6.8,0l-56,32.3c-2.1,1.2-3.3,3.5-3.3,5.9v64.8c0,2.4,1.3,4.7,3.3,5.9
				l56,32.3c2.1,1.2,4.7,1.2,6.8,0l56-32.3c2.1-1.2,3.3-3.5,3.3-5.9v-64.8c0-2.4-1.3-4.7-3.3-5.9L269.8,158.5z"/>
		</defs>
		<clipPath id="SVGID_2_">
			<use xlink:href="#SVGID_1_"  style="overflow:visible;"/>
		</clipPath>
		<g class="st3">
			<path class="st4" d="M262.9,158.5l-56.2,32.3c-2.1,1.2-3.6,3.5-3.6,5.9v64.8c0,1.6,0.7,3.1,1.7,4.3l63.1-108.1
				C266.3,157.4,264.5,157.6,262.9,158.5z"/>
			<path class="st4" d="M268.3,300.4c0.5-0.1,1.1-0.4,1.6-0.7l56.2-32.3c2.1-1.2,3.5-3.5,3.5-5.9v-64.8c0-1.7-0.8-3.5-2-4.7
				L268.3,300.4z"/>
			
				<linearGradient id="SVGID_3_" gradientUnits="userSpaceOnUse" x1="257.8941" y1="275.3174" x2="400.0462" y2="380.347" gradientTransform="matrix(1 0 0 -1 0 512)">
				<stop  offset="0.1376" style="stop-color:#41873F"/>
				<stop  offset="0.4032" style="stop-color:#54A044"/>
				<stop  offset="0.7136" style="stop-color:#66B848"/>
				<stop  offset="0.9081" style="stop-color:#6CC04A"/>
			</linearGradient>
			<path class="st5" d="M326,190.8l-56.3-32.3c-0.5-0.3-1.2-0.5-1.7-0.7l-63.1,108.1c0.5,0.7,1.2,1.2,1.9,1.6l56.3,32.3
				c1.6,0.9,3.5,1.2,5.2,0.7l59.2-108.3C327,191.6,326.5,191.2,326,190.8z"/>
		</g>
	</g>
	<g>
		<defs>
			<path id="SVGID_4_" d="M269.8,158.5c-2.1-1.2-4.7-1.2-6.8,0l-56,32.3c-2.1,1.2-3.3,3.5-3.3,5.9v64.8c0,2.4,1.3,4.7,3.3,5.9
				l56,32.3c2.1,1.2,4.7,1.2,6.8,0l56-32.3c2.1-1.2,3.3-3.5,3.3-5.9v-64.8c0-2.4-1.3-4.7-3.3-5.9L269.8,158.5z"/>
		</defs>
		<clipPath id="SVGID_5_">
			<use xlink:href="#SVGID_4_"  style="overflow:visible;"/>
		</clipPath>
		<g class="st6">
			<path class="st4" d="M329.6,261.5v-64.8c0-2.4-1.5-4.7-3.6-5.9l-56.3-32.3c-0.7-0.4-1.3-0.7-2.1-0.8L329.2,263
				C329.4,262.6,329.6,262,329.6,261.5z"/>
			<path class="st4" d="M206.7,190.8c-2.1,1.2-3.6,3.5-3.6,5.9v64.8c0,2.4,1.6,4.7,3.6,5.9l56.3,32.3c1.3,0.8,2.8,1.1,4.4,0.8
				l-60.3-109.8L206.7,190.8z"/>
			
				<linearGradient id="SVGID_6_" gradientUnits="userSpaceOnUse" x1="201.6066" y1="365.1533" x2="331.2611" y2="365.1533" gradientTransform="matrix(1 0 0 -1 0 512)">
				<stop  offset="9.191646e-002" style="stop-color:#6CC04A"/>
				<stop  offset="0.2864" style="stop-color:#66B848"/>
				<stop  offset="0.5968" style="stop-color:#54A044"/>
				<stop  offset="0.8624" style="stop-color:#41873F"/>
			</linearGradient>
			<polygon class="st7" points="261.1,146.6 260.4,147 261.4,147 			"/>
			
				<linearGradient id="SVGID_7_" gradientUnits="userSpaceOnUse" x1="201.6066" y1="282.8963" x2="331.2611" y2="282.8963" gradientTransform="matrix(1 0 0 -1 0 512)">
				<stop  offset="9.191646e-002" style="stop-color:#6CC04A"/>
				<stop  offset="0.2864" style="stop-color:#66B848"/>
				<stop  offset="0.5968" style="stop-color:#54A044"/>
				<stop  offset="0.8624" style="stop-color:#41873F"/>
			</linearGradient>
			<path class="st8" d="M326.1,267.4c1.6-0.9,2.8-2.5,3.3-4.3l-61.8-105.4c-1.6-0.3-3.3-0.1-4.8,0.8L207,190.7l60.3,109.9
				c0.8-0.1,1.7-0.4,2.5-0.8L326.1,267.4z"/>
			
				<linearGradient id="SVGID_8_" gradientUnits="userSpaceOnUse" x1="201.6066" y1="245.9026" x2="331.2611" y2="245.9026" gradientTransform="matrix(1 0 0 -1 0 512)">
				<stop  offset="9.191646e-002" style="stop-color:#6CC04A"/>
				<stop  offset="0.2864" style="stop-color:#66B848"/>
				<stop  offset="0.5968" style="stop-color:#54A044"/>
				<stop  offset="0.8624" style="stop-color:#41873F"/>
			</linearGradient>
			<polygon class="st9" points="331.3,266.3 330.9,265.6 330.9,266.6 			"/>
			
				<linearGradient id="SVGID_9_" gradientUnits="userSpaceOnUse" x1="201.6066" y1="229.2661" x2="331.2611" y2="229.2661" gradientTransform="matrix(1 0 0 -1 0 512)">
				<stop  offset="9.191646e-002" style="stop-color:#6CC04A"/>
				<stop  offset="0.2864" style="stop-color:#66B848"/>
				<stop  offset="0.5968" style="stop-color:#54A044"/>
				<stop  offset="0.8624" style="stop-color:#41873F"/>
			</linearGradient>
			<path class="st10" d="M326.1,267.4l-56.2,32.3c-0.8,0.4-1.6,0.7-2.5,0.8l1.1,2l62.3-36.1v-0.8l-1.6-2.7
				C328.9,264.8,327.7,266.4,326.1,267.4z"/>
			
				<linearGradient id="SVGID_10_" gradientUnits="userSpaceOnUse" x1="350.0498" y1="332.5118" x2="270.0872" y2="169.3881" gradientTransform="matrix(1 0 0 -1 0 512)">
				<stop  offset="0" style="stop-color:#41873F"/>
				<stop  offset="0.3288" style="stop-color:#418B3D"/>
				<stop  offset="0.6352" style="stop-color:#419637"/>
				<stop  offset="0.9319" style="stop-color:#3FA92D"/>
				<stop  offset="1" style="stop-color:#3FAE2A"/>
			</linearGradient>
			<path class="st11" d="M326.1,267.4l-56.2,32.3c-0.8,0.4-1.6,0.7-2.5,0.8l1.1,2l62.3-36.1v-0.8l-1.6-2.7
				C328.9,264.8,327.7,266.4,326.1,267.4z"/>
		</g>
	</g>
</g>
</svg>
