<?xml version="1.0" encoding="utf-8"?>
<!-- Generator: Adobe Illustrator 19.0.0, SVG Export Plug-In . SVG Version: 6.00 Build 0)  -->
<svg version="1.1" id="Layer_2" xmlns="http://www.w3.org/2000/svg" xmlns:xlink="http://www.w3.org/1999/xlink" x="0px" y="0px"
	 viewBox="44 -44 600 600" style="enable-background:new 44 -44 600 600;" xml:space="preserve">
<style type="text/css">
	.st0{fill:#00D8FF;}
	.st1{fill:none;stroke:#00D8FF;stroke-width:24;stroke-miterlimit:10;}
</style>
<circle class="st0" cx="343.5" cy="255.6" r="50.2"/>
<path class="st1" d="M343.5,153.6c67.4,0,129.9,9.7,177.1,25.9c56.8,19.6,91.8,49.2,91.8,76.1c0,28-37,59.5-98.1,79.7
	c-46.2,15.3-106.9,23.3-170.8,23.3c-65.6,0-127.6-7.5-174.3-23.4c-59-20.2-94.6-52.1-94.6-79.6c0-26.6,33.4-56.1,89.4-75.6
	C211.4,163.5,275.5,153.6,343.5,153.6z"/>
<path class="st1" d="M254.7,204.9C288.4,146.6,328,97.2,365.7,64.4C411,25,454.2,9.5,477.4,22.9c24.2,14,33,61.8,20.1,124.8
	c-9.8,47.6-33.2,104.2-65.2,159.6c-32.7,56.8-70.3,106.8-107.4,139.3c-47,41.1-92.4,55.9-116.2,42.2
	c-23.1-13.3-31.9-56.9-20.8-115.2C197.3,324.3,220.8,263.8,254.7,204.9z"/>
<path class="st1" d="M254.8,307.5c-33.7-58.3-56.7-117.3-66.3-166.3c-11.5-59-3.4-104.1,19.9-117.6c24.2-14,70.1,2.2,118.1,44.9
	c36.4,32.3,73.7,80.8,105.7,136.2c32.8,56.7,57.5,114.2,67,162.6c12.1,61.2,2.3,108-21.5,121.7c-23.1,13.3-65.2-0.8-110.2-39.5
	C329.6,416.9,288.9,366.3,254.8,307.5z"/>
</svg>
